<mxfile host="app.diagrams.net" modified="2024-07-16T01:33:39.044Z" agent="Mozilla/5.0 (Macintosh; Intel Mac OS X 10_15_7) AppleWebKit/537.36 (KHTML, like Gecko) Chrome/126.0.0.0 Safari/537.36" etag="YAC5uG_uHkgjFPqel0pW" version="24.6.5" type="github">
  <diagram name="Page-1" id="IkdY3mERwRsM2z8MiN5m">
    <mxGraphModel dx="1297" dy="2371" grid="1" gridSize="10" guides="1" tooltips="1" connect="1" arrows="1" fold="1" page="1" pageScale="1" pageWidth="827" pageHeight="1169" math="0" shadow="0">
      <root>
        <mxCell id="0" />
        <mxCell id="1" parent="0" />
        <mxCell id="uM9pkZA4XgdyNnDMRQnG-4" value="" style="strokeWidth=1;shadow=0;dashed=0;align=center;html=1;shape=mxgraph.mockup.containers.browserWindow;rSize=0;strokeColor=#666666;strokeColor2=#008cff;strokeColor3=#c4c4c4;mainText=,;recursiveResize=0;fontSize=20;" vertex="1" parent="1">
          <mxGeometry x="40" y="130" width="1310" height="970" as="geometry" />
        </mxCell>
        <mxCell id="uM9pkZA4XgdyNnDMRQnG-5" value="Streamlit" style="strokeWidth=1;shadow=0;dashed=0;align=center;html=1;shape=mxgraph.mockup.containers.anchor;fontSize=20;fontColor=#666666;align=left;whiteSpace=wrap;" vertex="1" parent="uM9pkZA4XgdyNnDMRQnG-4">
          <mxGeometry x="60" y="12" width="110" height="26" as="geometry" />
        </mxCell>
        <mxCell id="uM9pkZA4XgdyNnDMRQnG-6" value="http://localhost" style="strokeWidth=1;shadow=0;dashed=0;align=center;html=1;shape=mxgraph.mockup.containers.anchor;rSize=0;fontSize=20;fontColor=#666666;align=left;" vertex="1" parent="uM9pkZA4XgdyNnDMRQnG-4">
          <mxGeometry x="130" y="60" width="250" height="26" as="geometry" />
        </mxCell>
        <mxCell id="uM9pkZA4XgdyNnDMRQnG-8" value="Text introducing the API of interest" style="rounded=0;whiteSpace=wrap;html=1;fontSize=20;" vertex="1" parent="uM9pkZA4XgdyNnDMRQnG-4">
          <mxGeometry x="450" y="130" width="720" height="200" as="geometry" />
        </mxCell>
        <mxCell id="uM9pkZA4XgdyNnDMRQnG-10" value="Tabs" style="swimlane;whiteSpace=wrap;html=1;fontSize=20;startSize=50;" vertex="1" parent="uM9pkZA4XgdyNnDMRQnG-4">
          <mxGeometry x="450" y="350" width="720" height="510" as="geometry" />
        </mxCell>
        <mxCell id="uM9pkZA4XgdyNnDMRQnG-12" value="&lt;font style=&quot;font-size: 20px;&quot;&gt;Tab content related to a particular tab&lt;/font&gt;" style="text;html=1;align=center;verticalAlign=middle;whiteSpace=wrap;rounded=0;" vertex="1" parent="uM9pkZA4XgdyNnDMRQnG-10">
          <mxGeometry x="285" y="220" width="150" height="90" as="geometry" />
        </mxCell>
        <mxCell id="uM9pkZA4XgdyNnDMRQnG-11" value="Button to call API" style="rounded=1;whiteSpace=wrap;html=1;fontSize=20;" vertex="1" parent="uM9pkZA4XgdyNnDMRQnG-4">
          <mxGeometry x="450" y="880" width="170" height="60" as="geometry" />
        </mxCell>
        <mxCell id="uM9pkZA4XgdyNnDMRQnG-7" value="Sidebar" style="rounded=0;whiteSpace=wrap;html=1;fontSize=20;" vertex="1" parent="1">
          <mxGeometry x="40" y="240" width="260" height="860" as="geometry" />
        </mxCell>
        <mxCell id="uM9pkZA4XgdyNnDMRQnG-13" value="" style="verticalLabelPosition=bottom;verticalAlign=top;html=1;shape=mxgraph.basic.x" vertex="1" parent="1">
          <mxGeometry x="260" y="250" width="30" height="30" as="geometry" />
        </mxCell>
      </root>
    </mxGraphModel>
  </diagram>
</mxfile>
